<svg width="509" height="184" xmlns="http://www.w3.org/2000/svg" xmlns:xlink="http://www.w3.org/1999/xlink" overflow="hidden"><defs><clipPath id="clip0"><rect x="388" y="248" width="509" height="184"/></clipPath><clipPath id="clip1"><rect x="389" y="248" width="507" height="183"/></clipPath><clipPath id="clip2"><rect x="389" y="248" width="508" height="183"/></clipPath></defs><g clip-path="url(#clip0)" transform="translate(-388 -248)"><g clip-path="url(#clip1)"><g clip-path="url(#clip2)"><path d="M195.002 169.93 690.863 169.93 690.863 354.717 195.002 354.717Z" transform="matrix(1.07599 0 0 1 160.63 75.6861)"/><path d="M561.841 209.364C561.841 219.235 553.839 227.236 543.968 227.236 534.098 227.236 526.096 219.235 526.096 209.364 526.096 199.493 534.098 191.492 543.968 191.492 553.839 191.492 561.841 199.493 561.841 209.364Z" stroke="#FFFFFF" stroke-width="0.92858" stroke-miterlimit="10" fill="#FFFFFF" transform="matrix(1.07599 0 0 1 160.63 75.6861)"/><path d="M609.745 204.821C609.745 217.2 599.71 227.235 587.331 227.235 574.952 227.235 564.917 217.2 564.917 204.821 564.917 192.442 574.952 182.407 587.331 182.407 599.71 182.407 609.745 192.442 609.745 204.821Z" fill="#FFFFFF" transform="matrix(1.07599 0 0 1 160.63 75.6861)"/><path d="M601.72 295.753C601.72 298.317 600.725 300.86 598.993 300.86L536.289 300.86C534.559 300.86 533.005 298.317 533.005 295.753L533.005 240.966C533.005 238.402 534.559 236.788 536.289 236.788L598.993 236.788C600.723 236.788 601.72 238.402 601.72 240.966L601.72 295.753Z" stroke="#FFFFFF" stroke-width="18.5716" stroke-linecap="round" stroke-linejoin="bevel" stroke-miterlimit="10" fill="#FFFFFF" transform="matrix(1.07599 0 0 1 160.63 75.6861)"/><path d="M661.821 202.98 611.268 268.033 661.821 333.089 662.077 332.758 662.077 203.311Z" fill="#FFFFFF" transform="matrix(1.07599 0 0 1 160.63 75.6861)"/><path d="M601.72 247.002 621.22 247.002 621.22 287.86 601.72 287.86Z" fill="#FFFFFF" transform="matrix(1.07599 0 0 1 160.63 75.6861)"/><path d="M621.22 283.217C614.72 283.217 608.22 283.217 601.72 283.217 603.268 284.765 604.815 286.312 606.362 287.86 606.362 274.24 606.362 260.622 606.362 247.002 604.815 248.55 603.268 250.097 601.72 251.645 608.22 251.645 614.72 251.645 621.22 251.645 619.672 250.097 618.125 248.55 616.577 247.002 616.577 260.622 616.577 274.24 616.577 287.86 616.577 293.847 625.863 293.847 625.863 287.86 625.863 274.24 625.863 260.622 625.863 247.002 625.863 244.471 623.751 242.359 621.22 242.359 614.72 242.359 608.22 242.359 601.72 242.359 599.188 242.359 597.077 244.471 597.077 247.002 597.077 260.622 597.077 274.24 597.077 287.86 597.077 290.391 599.188 292.503 601.72 292.503 608.22 292.503 614.72 292.503 621.22 292.503 627.207 292.503 627.207 283.217 621.22 283.217Z" fill="#FFFFFF" transform="matrix(1.07599 0 0 1 160.63 75.6861)"/><text fill="#FFFFFF" font-family="Broadway,Broadway_MSFontService,sans-serif" font-weight="400" font-size="72" transform="matrix(0.999139 0 0 0.92858 402.241 367)">CINEMA</text><path d="M248.938-25.7909 243.235-16.1957 238.672-8.29193 248.408-8.16134 258.177-8.29193ZM128.217-44.5609 162.821-44.5609C164.366-44.5609 165.247-44.5288 165.465-44.4645 165.965-44.3357 166.216-43.9708 166.216-43.3699 166.216-42.6187 165.737-42.2431 164.779-42.2431L164.551-42.2431 148.195-42.439 148.065-32.3189 151.623-32.2863 163.049-32.4821 165.563-32.5148C166.477-32.5148 167.081-32.4376 167.375-32.2832 167.668-32.1288 167.815-31.8201 167.815-31.3569 167.815-30.4966 167.097-30.0664 165.661-30.0664L163.082-30.1449 148.065-30.2623C148.021-29.2611 148-28.0424 148-26.606L148-24.6473 148.228-2.12195 159.295-2.23366 167.13-2.31782C168.414-2.31782 169.056-1.93152 169.056-1.15891 169.056-0.515185 168.729-0.150305 168.077-0.0642709 167.924-0.042847 167.021-0.0214239 165.367 0L128.282 0 128.314-1.69756 128.347-12.6011 128.478-24.2882ZM51.1444-44.5609 71.1234-44.5609 71.1234-42.2758 70.9275-24.3861 71.1234 0 51.1444 0 51.3403-26.6713 51.1118-42.9613ZM25.3981-45.8994C31.666-45.8994 37.0852-43.7774 41.6555-39.5336 43.8319-37.5095 44.92-36.0514 44.92-35.1591 44.92-34.9197 44.8114-34.702 44.5941-34.5062 44.3768-34.3103 44.1377-34.2124 43.8769-34.2124 43.4423-34.2124 42.9209-34.6367 42.3125-35.4855 40.4435-38.0754 37.9769-40.1266 34.9127-41.6392 31.8485-43.1517 28.6104-43.908 25.1987-43.908 24.3948-43.908 23.6342-43.8319 22.9171-43.6795L22.7212-20.5339 22.9171-0.881425C24.0471-0.72908 24.9817-0.652908 25.721-0.652908 27.8508-0.652908 30.0349-1.03377 32.2735-1.7955 34.5121-2.55722 36.4899-3.59099 38.2068-4.89681 39.3154-5.74559 40.4619-6.87729 41.6463-8.29193 42.8307-9.70656 43.7815-11.0885 44.4987-12.4379 44.9119-13.2214 45.3575-13.6131 45.8356-13.6131 46.5528-13.6131 46.9114-13.3084 46.9114-12.6991 46.9114-12.0461 46.3728-10.9416 45.2955-9.38555 44.2182-7.82945 43.0375-6.43114 41.7534-5.19061 38.9677-2.51369 35.6923-0.652908 31.9272 0.391744 29.6638 1.02289 27.4874 1.33846 25.3981 1.33846 22.3512 1.33846 19.2934 0.685553 16.2248-0.620262 11.3062-2.6878 7.56285-5.96322 4.99475-10.4465 2.86191-14.1681 1.7955-18.1182 1.7955-22.2968 1.7955-26.5625 2.90544-30.5887 5.12533-34.3756 7.49756-38.4018 10.8492-41.4814 15.1801-43.6142 18.3358-45.1377 21.7418-45.8994 25.3981-45.8994ZM183.088-46.0953 200.961-20.1881 218.051-46.0953 225.159-21.7745 228.387-11.0015 231.289-1.24052 231.681 0 211.834 0 205.588-23.0788 192.098-2.8075 178.267-22.0759C176.931-17.374 175.475-11.6053 173.899-4.7698 173.33-2.15749 172.92-0.606065 172.67-0.115534 172.42 0.374997 171.915 0.620262 171.154 0.620262 170.198 0.620262 169.72 0.293808 169.72-0.359099 169.72-0.554971 170.025-1.65403 170.635-3.65628L172.661-10.6097 176.191-22.6232ZM78.3489-46.3891C87.1703-40.9213 100.74-33.0789 119.058-22.862L119.058-28.3194 118.992-36.979 118.96-40.9332 118.927-43.4168C118.927-44.5931 119.33-45.1812 120.135-45.1812 120.614-45.1812 120.946-45.0452 121.131-44.7731 121.316-44.5011 121.408-43.9842 121.408-43.2225L121.408-42.7654C121.386-42.3084 121.376-41.5576 121.376-40.5129L121.245-29.5114 121.147-19.424 121.231-8.81425 121.343 1.82814C116.86-0.980722 110.298-4.86187 101.658-9.81529 93.0176-14.7687 86.0206-18.6607 80.6667-21.4914L80.6994-19.8907 81.0258-3.03755 81.0585-0.783999C81.0585 0.152175 80.6232 0.620262 79.7527 0.620262 78.8604 0.620262 78.4142 0.043527 78.4142-1.10994L78.4468-3.39512 78.4795-7.08405 78.6101-23.8311ZM259.094-47.2379 285.194 0 262.555 0 259.401-5.9741 248.47-5.9741 238.84-6.00675 237.214-6.03939 235.065-2.05003C234.435-0.85099 233.994-0.106183 233.742 0.184395 233.49 0.474973 233.178 0.620262 232.805 0.620262 232.06 0.620262 231.688 0.293808 231.688-0.359099 231.688-0.642026 231.9-1.16979 232.325-1.9424 232.749-2.71501 234.236-5.25591 236.784-9.56509L256.546-42.8307Z" stroke="#FFFFFF" stroke-width="0.92858" stroke-miterlimit="10" fill="none" fill-rule="evenodd" transform="matrix(1.07599 0 0 1 402.241 367.282)"/><text fill="#000000" fill-opacity="0" font-family="Arial,Arial_MSFontService,sans-serif" font-size="49.066" x="1.7955" y="-4.30511">CINEMA</text><text font-family="Broadway,Broadway_MSFontService,sans-serif" font-weight="400" font-size="72" transform="matrix(0.999139 0 0 0.92858 744.157 367)">X</text><path d="M47.0746-45.1812C47.4228-45.1812 47.7275-45.0615 47.9887-44.8221 48.2499-44.5827 48.3804-44.2998 48.3804-43.9733 48.3804-43.5598 48.2009-43.1028 47.8418-42.6022 47.4827-42.1017 46.2372-40.5354 44.1054-37.9033L34.7403-26.1561 35.4248-25.1109C39.8156-18.1231 42.8588-13.3557 44.5543-10.8087 46.2498-8.26166 48.7713-4.65877 52.1189 0L28.8912 0 17.5953-18.3742C14.0703-14.1963 9.99051-8.87614 5.35588-2.41372 4.48534-1.21706 3.83226-0.412233 3.39665 0.000765077 2.96104 0.413763 2.5256 0.620262 2.09033 0.620262 1.30616 0.620262 0.914072 0.261163 0.914072-0.457035 0.914072-0.739962 0.995685-1.01745 1.15891-1.28949 1.32214-1.56154 1.91554-2.3401 2.9391-3.62517L4.08271-5.02994 16.3013-20.4171 0.652908-44.5609 23.5705-44.5609 33.4391-28.1867C35.7722-31.035 39.0867-35.4165 43.3826-41.3311 44.6473-43.0922 45.4701-44.1742 45.8509-44.577 46.2318-44.9798 46.6397-45.1812 47.0746-45.1812Z" stroke="#FFFFFF" stroke-width="0.92858" stroke-miterlimit="10" fill="none" fill-rule="evenodd" transform="matrix(1.07599 0 0 1 744.157 367.282)"/><text fill="#000000" fill-opacity="0" font-family="Arial,Arial_MSFontService,sans-serif" font-size="45.8015" x="0.652908" y="-5.10492">X</text></g></g></g></svg>